<svg width="156" height="156" fill="none" xmlns="http://www.w3.org/2000/svg"><g filter="url(#a)"><path d="M83.94.54a77.5 77.5 0 1 0-11.16 154.6A77.5 77.5 0 0 0 83.94.53Z" fill="url(#b)"/><path d="M83.94.54a77.5 77.5 0 1 0-11.16 154.6A77.5 77.5 0 0 0 83.94.53Z" fill="url(#c)"/></g><path fill-rule="evenodd" clip-rule="evenodd" d="M74.58 86.07c.31 3.02 2.8 5.7 4.26 5.85.05 0 5.64-.08 9.42-4.45 2.95-3.4 2.77-7.18-.36-7.78-1.14-.11-13.92.62-13.32 6.38Zm14.73-16.62a14.16 14.16 0 0 0-15.14-4.22l-.62.22.05.02c-.62.28-1.19.65-1.68 1.1C67.1 71.05 79.74 77 86.83 78.2c2.88 2.84 5.27-5.77 2.48-8.74" fill="#D6F4FF" fill-opacity=".08"/><path fill-rule="evenodd" clip-rule="evenodd" d="M75.56 67.26c-2.27 2.38-8.66 3.26-9.6 2.8l-.01-.02.17-.22a14.43 14.43 0 0 1 6.44-4.79c.93-.34 1.8-.22 2.1-.18 2.69.5.92 2.4.9 2.41Z" fill="url(#d)"/><path fill-rule="evenodd" clip-rule="evenodd" d="M70.9 86c-.02.86-.71 4.17-.93 4.42-.16-.02-.48-.05-1.3-.7a14.67 14.67 0 0 1-4.75-6.8 14.13 14.13 0 0 1 1.2-11.6c.82 1.54 1.82 2.98 2.62 4.53a63.4 63.4 0 0 1 1.95 4.35c1.24 3.13 1.21 4.93 1.2 5.8Z" fill="url(#e)"/><path fill-rule="evenodd" clip-rule="evenodd" d="M92.47 80.96a14.26 14.26 0 0 1-1.89 5.07c-2.01 1.52-12.81-4.86-12.92-4.92-1.46-.95-5.93-3.81-5.82-7.13.16-4.77 10.36-6.4 14.62-5.82.5.1 2.05.37 2.83 1.24a14.18 14.18 0 0 1 3.17 11.56ZM82.54 92.3c-1.36.36-2.67-.29-2.11-1.43 1.08-2.2 7.5-3.55 8.86-3.45.17 0 .22.13.13.24a14.76 14.76 0 0 1-6.88 4.64Z" fill="url(#f)"/><defs><linearGradient id="d" x1="91.06" y1="72.74" x2="64.56" y2="83.74" gradientUnits="userSpaceOnUse"><stop stop-color="#7DC2EA"/><stop offset="1" stop-color="#5C94B9"/></linearGradient><linearGradient id="e" x1="91.06" y1="72.74" x2="64.56" y2="83.74" gradientUnits="userSpaceOnUse"><stop stop-color="#7DC2EA"/><stop offset="1" stop-color="#5C94B9"/></linearGradient><linearGradient id="f" x1="91.06" y1="72.74" x2="64.56" y2="83.74" gradientUnits="userSpaceOnUse"><stop stop-color="#7DC2EA"/><stop offset="1" stop-color="#5C94B9"/></linearGradient><radialGradient id="b" cx="0" cy="0" r="1" gradientUnits="userSpaceOnUse" gradientTransform="rotate(44.18 -17.29 1.2) scale(222.777)"><stop offset=".63" stop-color="#00C2FF"/><stop offset="1" stop-color="#fff"/></radialGradient><radialGradient id="c" cx="0" cy="0" r="1" gradientUnits="userSpaceOnUse" gradientTransform="rotate(-159.42 85.33 37.72) scale(178.057)"><stop stop-color="#FFA3A3" stop-opacity="0"/><stop offset=".74" stop-color="#4A658E"/><stop offset=".94" stop-color="#A99CEC"/></radialGradient><filter id="a" x=".85" y=".33" width="155.01" height="155.01" filterUnits="userSpaceOnUse" color-interpolation-filters="sRGB"><feFlood flood-opacity="0" result="BackgroundImageFix"/><feBlend in="SourceGraphic" in2="BackgroundImageFix" result="shape"/><feColorMatrix in="SourceAlpha" values="0 0 0 0 0 0 0 0 0 0 0 0 0 0 0 0 0 0 127 0" result="hardAlpha"/><feOffset/><feGaussianBlur stdDeviation="13.5"/><feComposite in2="hardAlpha" operator="arithmetic" k2="-1" k3="1"/><feColorMatrix values="0 0 0 0 0.917667 0 0 0 0 0.683333 0 0 0 0 1 0 0 0 0.44 0"/><feBlend in2="shape" result="effect1_innerShadow_9_155"/></filter></defs></svg>