<svg width="1242" height="960" fill="none" xmlns="http://www.w3.org/2000/svg"><path d="M211.18 101.31a52.75 52.75 0 1 0-45.11-95.38 52.75 52.75 0 0 0 45.11 95.38Z" fill="url(#a)"/><g filter="url(#b)"><path d="M1159.49 171.13a88.44 88.44 0 1 0-13.43 176.37 88.44 88.44 0 0 0 13.43-176.37Z" fill="url(#c)"/></g><g filter="url(#d)"><path d="M188.7 232.94c131.19-31.95 263.45 48.5 295.41 179.7 31.96 131.2-48.5 263.46-179.69 295.41C173.22 740.01 40.96 659.56 9 528.36c-31.96-131.2 48.5-263.46 179.7-295.42Z" fill="url(#e)"/></g><defs><radialGradient id="a" cx="0" cy="0" r="1" gradientUnits="userSpaceOnUse" gradientTransform="matrix(90.83465 24.2983 -28.06923 104.9316 161.3 48.71)"><stop stop-opacity="0"/><stop offset=".6" stop-color="#074F78" stop-opacity="0"/><stop offset="1" stop-color="#25D28A"/></radialGradient><radialGradient id="c" cx="0" cy="0" r="1" gradientUnits="userSpaceOnUse" gradientTransform="matrix(-112.14401 -110.76288 127.95262 -129.5481 1188.51 289.14)"><stop offset=".6" stop-color="#030F1A"/><stop offset="1" stop-color="#25D28A"/></radialGradient><radialGradient id="e" cx="0" cy="0" r="1" gradientUnits="userSpaceOnUse" gradientTransform="matrix(376.61706 -232.7433 213.24876 345.07167 88.44 567.17)"><stop offset=".54"/><stop offset=".83" stop-color="#3A1C0B"/><stop offset="1" stop-color="#9ED574"/></radialGradient><filter id="b" x="1048.33" y="170.87" width="192.88" height="207.87" filterUnits="userSpaceOnUse" color-interpolation-filters="sRGB"><feFlood flood-opacity="0" result="BackgroundImageFix"/><feBlend in="SourceGraphic" in2="BackgroundImageFix" result="shape"/><feColorMatrix in="SourceAlpha" values="0 0 0 0 0 0 0 0 0 0 0 0 0 0 0 0 0 0 127 0" result="hardAlpha"/><feOffset/><feGaussianBlur stdDeviation="14.5"/><feComposite in2="hardAlpha" operator="arithmetic" k2="-1" k3="1"/><feColorMatrix values="0 0 0 0 0.279167 0 0 0 0 1 0 0 0 0 0.734161 0 0 0 0.14 0"/><feBlend in2="shape" result="effect1_innerShadow_10_546"/><feColorMatrix in="SourceAlpha" values="0 0 0 0 0 0 0 0 0 0 0 0 0 0 0 0 0 0 127 0" result="hardAlpha"/><feOffset dx="-16" dy="43"/><feGaussianBlur stdDeviation="15.5"/><feComposite in2="hardAlpha" operator="arithmetic" k2="-1" k3="1"/><feColorMatrix values="0 0 0 0 0.070625 0 0 0 0 0.732616 0 0 0 0 0.941667 0 0 0 0.17 0"/><feBlend in2="effect1_innerShadow_10_546" result="effect2_innerShadow_10_546"/></filter><filter id="d" x="0" y="198.94" width="535.11" height="535.11" filterUnits="userSpaceOnUse" color-interpolation-filters="sRGB"><feFlood flood-opacity="0" result="BackgroundImageFix"/><feColorMatrix in="SourceAlpha" values="0 0 0 0 0 0 0 0 0 0 0 0 0 0 0 0 0 0 127 0" result="hardAlpha"/><feOffset dx="21" dy="-4"/><feGaussianBlur stdDeviation="11.5"/><feColorMatrix values="0 0 0 0 0.7375 0 0 0 0 0.284396 0 0 0 0 0 0 0 0 0.23 0"/><feBlend in2="BackgroundImageFix" result="effect1_dropShadow_10_546"/><feBlend in="SourceGraphic" in2="effect1_dropShadow_10_546" result="shape"/></filter></defs></svg>