<svg width="290" height="159" fill="none" xmlns="http://www.w3.org/2000/svg"><path d="M145 158.6c61.86 0 112-18.95 112-42.34V88.34H33v27.92c0 23.39 50.14 42.34 112 42.34Z" fill="url(#a)"/><g filter="url(#b)"><path d="M145 130.68c61.86 0 112-18.95 112-42.34C257 64.96 206.86 46 145 46S33 64.96 33 88.34c0 23.39 50.14 42.34 112 42.34Z" fill="url(#c)"/></g><path opacity=".5" d="M238.24 88.34c0 4.52-2.42 8.94-7.07 13.08-4.64 4.13-11.42 7.9-19.88 11.1-16.92 6.37-40.35 10.33-66.29 10.33-25.94 0-49.37-3.96-66.29-10.33-8.46-3.2-15.24-6.97-19.88-11.1-4.65-4.14-7.07-8.56-7.07-13.08s2.42-8.94 7.07-13.08c4.64-4.14 11.42-7.9 19.88-11.1C95.63 57.8 119.06 53.83 145 53.83c25.94 0 49.37 3.96 66.29 10.34 8.46 3.18 15.24 6.96 19.88 11.1 4.65 4.13 7.07 8.55 7.07 13.07Z" stroke="url(#d)" stroke-width="2"/><g style="mix-blend-mode:soft-light" fill-rule="evenodd" clip-rule="evenodd" fill="#fff"><path d="M159.57 69.24a1.67 1.67 0 0 0-.66-.25c-.04 0-.3-.03-.9.09-.62.12-1.43.36-2.4.76a32.3 32.3 0 0 0-6.5 3.76 61.16 61.16 0 0 0-13.46 13.8c-3.94 5.55-6.15 10.69-6.59 14.49-.21 1.9.03 3.43.66 4.48.31.53.7.89 1.07 1.11.37.22.62.25.66.25.04 0 .3.03.9-.09.63-.12 1.44-.36 2.4-.76a32.1 32.1 0 0 0 6.5-3.76 61.12 61.12 0 0 0 13.46-13.8c3.94-5.55 6.16-10.68 6.6-14.49.2-1.9-.03-3.43-.66-4.48-.32-.53-.7-.89-1.08-1.11Zm-2.46 20.33c7.94-11.2 9.04-20.82 2.45-21.5-6.6-.66-18.37 7.88-26.3 19.08-7.95 11.2-9.04 20.82-2.45 21.5 6.59.66 18.36-7.88 26.3-19.08Z" style="mix-blend-mode:soft-light"/><path d="M196.21 83.51c.32-.23.26-.32.25-.34-.01-.01-.09-.1-.67-.25a21.5 21.5 0 0 0-2.94-.4 125.5 125.5 0 0 0-11.87-.25c-10.06.16-23.65 1-38.35 2.49-14.7 1.49-27.59 3.33-36.52 5.09a79.97 79.97 0 0 0-9.95 2.45 8.6 8.6 0 0 0-2.01.9c-.32.24-.26.33-.25.35.01.01.09.1.67.25.6.14 1.55.28 2.94.4 2.8.24 6.82.33 11.87.25 10.06-.16 23.66-1 38.36-2.49 14.7-1.49 27.58-3.33 36.51-5.09a80.02 80.02 0 0 0 9.95-2.45 8.6 8.6 0 0 0 2.01-.9Zm-47.83 9.36c29.65-3 52.25-7.45 50.48-9.94-1.77-2.5-27.23-2.08-56.88.92-29.64 3-52.24 7.45-50.48 9.94 1.77 2.5 27.23 2.08 56.88-.92Z" style="mix-blend-mode:soft-light"/><path d="M181.8 102.64c.69 0 .88-.07.9-.08.04-.02.21-.09.24-.35s-.11-.65-.54-1.17c-.85-1.03-2.65-2.4-5.37-4-5.4-3.22-14.12-7.25-24.88-11.32a260.9 260.9 0 0 0-29.9-9.4 95.02 95.02 0 0 0-10.6-2.04 24.37 24.37 0 0 0-3.1-.2c-.67 0-.86.07-.9.09-.02 0-.2.08-.23.34s.12.65.54 1.16c.85 1.04 2.66 2.4 5.37 4.01 5.4 3.22 14.12 7.25 24.88 11.32a260.68 260.68 0 0 0 29.91 9.4 94.82 94.82 0 0 0 10.6 2.04c1.36.16 2.38.22 3.08.2Zm-45.34-10.98c21.69 8.2 43.18 13.38 48 11.56 4.82-1.83-8.86-9.95-30.55-18.16-21.7-8.2-43.19-13.38-48-11.56-4.83 1.83 8.85 9.95 30.55 18.16Z" style="mix-blend-mode:soft-light"/><path d="M114.92 79.2c2.08.22 3.32 1.03 2.76 1.82-.56.78-2.7 1.25-4.78 1.04-2.09-.21-3.32-1.02-2.77-1.8.56-.8 2.7-1.26 4.79-1.05Zm63.42 1.2c2.08.2 3.32 1.02 2.76 1.8-.56.8-2.7 1.26-4.78 1.05-2.09-.21-3.32-1.02-2.77-1.81.56-.79 2.7-1.26 4.79-1.05Zm-49.15 19.02c2.09.21 3.33 1.02 2.77 1.8-.56.8-2.7 1.26-4.79 1.05-2.08-.2-3.32-1.02-2.76-1.8.56-.8 2.7-1.26 4.78-1.05Zm17.5-13.5c3.53.35 5.63 1.72 4.68 3.06-.95 1.33-4.57 2.12-8.1 1.76-3.53-.35-5.63-1.72-4.68-3.06.94-1.33 4.57-2.12 8.1-1.77Z" style="mix-blend-mode:soft-light"/></g><defs><linearGradient id="c" x1="145" y1="46" x2="145" y2="130.68" gradientUnits="userSpaceOnUse"><stop stop-color="#FD91FF"/><stop offset=".34" stop-color="#A0A8FF"/><stop offset=".95" stop-color="#C9F2FF"/></linearGradient><linearGradient id="d" x1="50.76" y1="52.83" x2="245.22" y2="98.24" gradientUnits="userSpaceOnUse"><stop stop-color="#fff"/><stop offset="1" stop-color="#fff" stop-opacity="0"/></linearGradient><radialGradient id="a" cx="0" cy="0" r="1" gradientUnits="userSpaceOnUse" gradientTransform="matrix(25.92754 72.17656 -120.52735 43.2963 149.85 121.47)"><stop stop-color="#68E9F1"/><stop offset=".6" stop-color="#86AFFF"/><stop offset="1" stop-color="#9492FF"/></radialGradient><filter id="b" x="0" y="0" width="290" height="150.68" filterUnits="userSpaceOnUse" color-interpolation-filters="sRGB"><feFlood flood-opacity="0" result="BackgroundImageFix"/><feColorMatrix in="SourceAlpha" values="0 0 0 0 0 0 0 0 0 0 0 0 0 0 0 0 0 0 127 0" result="hardAlpha"/><feOffset dy="-13"/><feGaussianBlur stdDeviation="16.5"/><feColorMatrix values="0 0 0 0 0.404167 0 0 0 0 0.741154 0 0 0 0 1 0 0 0 0.4 0"/><feBlend in2="BackgroundImageFix" result="effect1_dropShadow_9_244"/><feColorMatrix in="SourceAlpha" values="0 0 0 0 0 0 0 0 0 0 0 0 0 0 0 0 0 0 127 0" result="hardAlpha"/><feOffset dy="1.86"/><feGaussianBlur stdDeviation="1.86"/><feColorMatrix values="0 0 0 0 1 0 0 0 0 1 0 0 0 0 1 0 0 0 0.25 0"/><feBlend in2="effect1_dropShadow_9_244" result="effect2_dropShadow_9_244"/><feBlend in="SourceGraphic" in2="effect2_dropShadow_9_244" result="shape"/><feColorMatrix in="SourceAlpha" values="0 0 0 0 0 0 0 0 0 0 0 0 0 0 0 0 0 0 127 0" result="hardAlpha"/><feOffset dy="-1.86"/><feGaussianBlur stdDeviation=".67"/><feComposite in2="hardAlpha" operator="arithmetic" k2="-1" k3="1"/><feColorMatrix values="0 0 0 0 0.925 0 0 0 0 0.936947 0 0 0 0 1 0 0 0 0.12 0"/><feBlend in2="shape" result="effect3_innerShadow_9_244"/></filter></defs></svg>