<svg width="168" height="168" fill="none" xmlns="http://www.w3.org/2000/svg"><g clip-path="url(#a)"><g filter="url(#b)"><path d="M27.22 145.9A84 84 0 1 1 140.79 22.1 84 84 0 0 1 27.22 145.9Z" fill="url(#c)"/></g><g opacity=".1" fill="#fff"><path opacity=".1" d="m77.98 60.32-.03 1.18 8.5 31.76.41.23 12.41-12.66-21.3-20.51Z" fill-opacity=".68"/><path opacity=".1" d="m77.98 60.32-8.2 28.4 17.08 4.77-4.13-15.41-4.75-17.76Z" fill-opacity=".33"/><path opacity=".1" d="m87.61 96.28-.12.27 3.03 11.32.32.48 9.19-24.73L87.6 96.28Z" fill-opacity=".68"/><path opacity=".1" d="m90.84 108.35-3.23-12.07-17.07-4.76 20.3 16.83Z" fill-opacity=".33"/><path opacity=".1" d="m86.86 93.49 12.41-12.66-16.54-2.75 4.13 15.41Z"/><path opacity=".1" d="m69.79 88.73 17.07 4.76-4.13-15.41L69.8 88.73Z" fill-opacity=".68"/></g></g><defs><radialGradient id="c" cx="0" cy="0" r="1" gradientUnits="userSpaceOnUse" gradientTransform="rotate(-1.4 3504.76 -561.74) scale(165.287 178.67)"><stop stop-color="#386480"/><stop offset=".68" stop-color="#5B4BB9"/><stop offset=".93" stop-color="#F9FDFF"/></radialGradient><clipPath id="a"><path fill="#fff" d="M0 0h168v168H0z"/></clipPath><filter id="b" x="0" y="0" width="168" height="168" filterUnits="userSpaceOnUse" color-interpolation-filters="sRGB"><feFlood flood-opacity="0" result="BackgroundImageFix"/><feBlend in="SourceGraphic" in2="BackgroundImageFix" result="shape"/><feColorMatrix in="SourceAlpha" values="0 0 0 0 0 0 0 0 0 0 0 0 0 0 0 0 0 0 127 0" result="hardAlpha"/><feOffset/><feGaussianBlur stdDeviation="23"/><feComposite in2="hardAlpha" operator="arithmetic" k2="-1" k3="1"/><feColorMatrix values="0 0 0 0 0.917667 0 0 0 0 0.683333 0 0 0 0 1 0 0 0 0.42 0"/><feBlend in2="shape" result="effect1_innerShadow_9_203"/></filter></defs></svg>