<svg width="32" height="33" fill="none" xmlns="http://www.w3.org/2000/svg"><g clip-path="url(#a)"><path fill-rule="evenodd" clip-rule="evenodd" d="M24.51 30.38c.43.3.99.38 1.48.2.5-.2.85-.62.96-1.13 1.16-5.44 3.97-19.22 5.03-24.18.08-.37-.06-.76-.35-1-.3-.26-.7-.33-1.06-.2C24.97 6.14 7.77 12.6.72 15.21c-.44.16-.73.6-.72 1.06.02.48.33.88.8 1.02 3.15.95 7.29 2.26 7.29 2.26s1.94 5.85 2.95 8.82c.12.37.41.67.8.77.38.1.8 0 1.08-.28l4.13-3.9s4.76 3.5 7.46 5.42ZM9.83 18.81l2.24 7.38.5-4.67L26.15 9.27a.37.37 0 0 0 .04-.5.38.38 0 0 0-.5-.09L9.83 18.81Z" fill="#fff"/></g><defs><clipPath id="a"><path fill="#fff" d="M0 0h32v33H0z"/></clipPath></defs></svg>