<svg width="4041" height="1473" fill="none" xmlns="http://www.w3.org/2000/svg"><path d="m1487.57 1210.68 459.9-14.99" stroke="url(#a)" stroke-width="4.17" stroke-linecap="round"/><path d="m1617.54 1219.01 463.23-13.33" stroke="url(#b)" stroke-width="4.17" stroke-linecap="round"/><path d="m2120.76 1199.02 303.27 271.61" stroke="url(#c)" stroke-width="4.17" stroke-linecap="round"/><g filter="url(#d)"><path d="M1035.41 433.35a96.62 96.62 0 0 0-.24-136.64c-37.8-37.67-98.98-37.56-136.65.25-37.66 37.8-37.55 98.97.25 136.64 37.8 37.66 98.98 37.55 136.64-.25Z" fill="url(#e)"/></g><g filter="url(#f)"><path d="M1120.7 1283.96a64.63 64.63 0 1 0-53.85-117.5 64.63 64.63 0 0 0 53.85 117.5Z" fill="url(#g)"/></g><g filter="url(#h)"><path d="M1445.52 827.8a64.63 64.63 0 1 0-40.32-122.82 64.63 64.63 0 0 0 40.32 122.81Z" fill="url(#i)"/></g><g filter="url(#j)"><path d="M3082.26 1308.69a68.31 68.31 0 1 0 72.63 115.73 68.32 68.32 0 0 0-72.63-115.73Z" fill="url(#k)"/></g><g filter="url(#l)"><path d="M2488.93 992.62a89.98 89.98 0 1 0 124.84 24.69 89.99 89.99 0 0 0-124.84-24.69Z" fill="url(#m)"/></g><g filter="url(#n)"><path d="M1914.09 1266.04a63.32 63.32 0 1 0 65.76 108.24 63.32 63.32 0 0 0-65.76-108.24Z" fill="url(#o)"/></g><path d="M2929.64 226.33c59.34-8.13 100.86-62.82 92.73-122.16-8.13-59.33-62.82-100.85-122.15-92.73-59.34 8.13-100.86 62.82-92.73 122.16 8.13 59.34 62.82 100.85 122.15 92.73Z" fill="url(#p)"/><g filter="url(#q)"><path d="M3072.33 308.17a38.44 38.44 0 1 0 30.37-70.62 38.44 38.44 0 0 0-30.37 70.62Z" fill="url(#r)"/></g><path d="M1306.1 165.91c36.2 42 99.58 46.69 141.57 10.5 41.98-36.2 46.68-99.58 10.48-141.57-36.19-41.99-99.57-46.68-141.56-10.49-41.99 36.2-46.68 99.58-10.49 141.56Z" fill="url(#s)"/><defs><radialGradient id="e" cx="0" cy="0" r="1" gradientUnits="userSpaceOnUse" gradientTransform="rotate(92.33 390.84 569.68) scale(320.243)"><stop offset=".47" stop-color="#0C0C0C"/><stop offset=".89" stop-color="#2F3A55"/></radialGradient><radialGradient id="g" cx="0" cy="0" r="1" gradientUnits="userSpaceOnUse" gradientTransform="rotate(-62.68 1616.97 -182.64) scale(202.379)"><stop offset=".47" stop-color="#130F1A"/><stop offset=".82" stop-color="#3B2A5E"/><stop offset=".99" stop-color="#8543B1"/></radialGradient><radialGradient id="i" cx="0" cy="0" r="1" gradientUnits="userSpaceOnUse" gradientTransform="rotate(26.69 -876.48 3180.2) scale(174.374)"><stop offset=".47" stop-color="#190F2E"/><stop offset=".95" stop-color="#7D4087"/></radialGradient><radialGradient id="k" cx="0" cy="0" r="1" gradientUnits="userSpaceOnUse" gradientTransform="rotate(-171.64 1643.96 573.08) scale(149.052)"><stop stop-color="#AB432C"/><stop offset=".61" stop-color="#460615"/><stop offset=".87" stop-color="#543871"/></radialGradient><radialGradient id="m" cx="0" cy="0" r="1" gradientUnits="userSpaceOnUse" gradientTransform="rotate(150.81 1145.2 856.13) scale(144.055 155.136)"><stop stop-color="#200F31"/><stop offset=".84" stop-color="#82118C"/></radialGradient><radialGradient id="o" cx="0" cy="0" r="1" gradientUnits="userSpaceOnUse" gradientTransform="rotate(-25.77 3874.9 -3553.26) scale(87.4762)"><stop stop-color="#77099E"/><stop offset=".7" stop-color="#6B2DAA"/><stop offset="1" stop-color="#6CE8FF"/></radialGradient><radialGradient id="p" cx="0" cy="0" r="1" gradientUnits="userSpaceOnUse" gradientTransform="rotate(105.78 1436.4 1110.33) scale(324.671)"><stop offset=".47" stop-color="#111"/><stop offset="1" stop-color="#A24F2C"/></radialGradient><radialGradient id="r" cx="0" cy="0" r="1" gradientUnits="userSpaceOnUse" gradientTransform="rotate(123.34 1482.06 959.3) scale(75.7933)"><stop offset=".47" stop-color="#111"/><stop offset=".87" stop-color="#473120"/><stop offset="1" stop-color="#B35825"/></radialGradient><radialGradient id="s" cx="0" cy="0" r="1" gradientUnits="userSpaceOnUse" gradientTransform="rotate(110.72 711.06 504.97) scale(212.759)"><stop offset=".47" stop-color="#111"/><stop offset=".87" stop-color="#1F2737"/></radialGradient><filter id="d" x="870.35" y="268.53" width="193.24" height="193.24" filterUnits="userSpaceOnUse" color-interpolation-filters="sRGB"><feFlood flood-opacity="0" result="BackgroundImageFix"/><feBlend in="SourceGraphic" in2="BackgroundImageFix" result="shape"/><feColorMatrix in="SourceAlpha" values="0 0 0 0 0 0 0 0 0 0 0 0 0 0 0 0 0 0 127 0" result="hardAlpha"/><feOffset/><feGaussianBlur stdDeviation="16.66"/><feComposite in2="hardAlpha" operator="arithmetic" k2="-1" k3="1"/><feColorMatrix values="0 0 0 0 0.304167 0 0 0 0 0.706576 0 0 0 0 1 0 0 0 0.25 0"/><feBlend in2="shape" result="effect1_innerShadow_10_585"/></filter><filter id="f" x="1015.8" y="1147.23" width="155.95" height="155.95" filterUnits="userSpaceOnUse" color-interpolation-filters="sRGB"><feFlood flood-opacity="0" result="BackgroundImageFix"/><feBlend in="SourceGraphic" in2="BackgroundImageFix" result="shape"/><feGaussianBlur stdDeviation="6.67" result="effect1_foregroundBlur_10_585"/></filter><filter id="h" x="1354.05" y="695.08" width="142.62" height="142.62" filterUnits="userSpaceOnUse" color-interpolation-filters="sRGB"><feFlood flood-opacity="0" result="BackgroundImageFix"/><feBlend in="SourceGraphic" in2="BackgroundImageFix" result="shape"/><feGaussianBlur stdDeviation="3.33" result="effect1_foregroundBlur_10_585"/></filter><filter id="j" x="3036.92" y="1284.9" width="163.31" height="163.31" filterUnits="userSpaceOnUse" color-interpolation-filters="sRGB"><feFlood flood-opacity="0" result="BackgroundImageFix"/><feBlend in="SourceGraphic" in2="BackgroundImageFix" result="shape"/><feGaussianBlur stdDeviation="6.67" result="effect1_foregroundBlur_10_585"/></filter><filter id="l" x="2449.01" y="977.39" width="179.98" height="179.98" filterUnits="userSpaceOnUse" color-interpolation-filters="sRGB"><feFlood flood-opacity="0" result="BackgroundImageFix"/><feBlend in="SourceGraphic" in2="BackgroundImageFix" result="shape"/><feColorMatrix in="SourceAlpha" values="0 0 0 0 0 0 0 0 0 0 0 0 0 0 0 0 0 0 127 0" result="hardAlpha"/><feOffset/><feGaussianBlur stdDeviation="16.66"/><feComposite in2="hardAlpha" operator="arithmetic" k2="-1" k3="1"/><feColorMatrix values="0 0 0 0 1 0 0 0 0 0.451667 0 0 0 0 0.416667 0 0 0 0.41 0"/><feBlend in2="shape" result="effect1_innerShadow_10_585"/></filter><filter id="n" x="1876.97" y="1241.83" width="148.32" height="148.32" filterUnits="userSpaceOnUse" color-interpolation-filters="sRGB"><feFlood flood-opacity="0" result="BackgroundImageFix"/><feBlend in="SourceGraphic" in2="BackgroundImageFix" result="shape"/><feColorMatrix in="SourceAlpha" values="0 0 0 0 0 0 0 0 0 0 0 0 0 0 0 0 0 0 127 0" result="hardAlpha"/><feOffset dx="15" dy="-15"/><feGaussianBlur stdDeviation="11.66"/><feComposite in2="hardAlpha" operator="arithmetic" k2="-1" k3="1"/><feColorMatrix values="0 0 0 0 0.649181 0 0 0 0 0.455382 0 0 0 0 0.895833 0 0 0 1 0"/><feBlend in2="shape" result="effect1_innerShadow_10_585"/><feGaussianBlur stdDeviation="3.33" result="effect2_foregroundBlur_10_585"/></filter><filter id="q" x="3042.42" y="227.77" width="90.2" height="90.2" filterUnits="userSpaceOnUse" color-interpolation-filters="sRGB"><feFlood flood-opacity="0" result="BackgroundImageFix"/><feBlend in="SourceGraphic" in2="BackgroundImageFix" result="shape"/><feGaussianBlur stdDeviation="3.33" result="effect1_foregroundBlur_10_585"/></filter><linearGradient id="a" x1="1947.16" y1="1195.64" x2="1932.14" y2="1285.19" gradientUnits="userSpaceOnUse"><stop offset=".19" stop-color="#EDBAFF"/><stop offset=".43" stop-color="#D8AFF9" stop-opacity="0"/></linearGradient><linearGradient id="b" x1="1617.75" y1="1219.02" x2="1618.48" y2="1192.77" gradientUnits="userSpaceOnUse"><stop offset=".19" stop-color="#BAFBFF"/><stop offset=".43" stop-color="#AFD4F9" stop-opacity="0"/></linearGradient><linearGradient id="c" x1="2423.89" y1="1470.68" x2="2158.99" y2="1165.45" gradientUnits="userSpaceOnUse"><stop offset=".19" stop-color="#BAFBFF"/><stop offset=".43" stop-color="#AFD4F9" stop-opacity="0"/></linearGradient></defs></svg>