<svg width="32" height="33" fill="none" xmlns="http://www.w3.org/2000/svg"><path d="M32 6.09c-1.18.52-2.44.87-3.77 1.03a6.58 6.58 0 0 0 2.89-3.63c-1.27.75-2.68 1.3-4.17 1.6a6.56 6.56 0 0 0-11.19 5.98A18.64 18.64 0 0 1 2.23 4.21a6.56 6.56 0 0 0 2.03 8.76 6.54 6.54 0 0 1-2.97-.81v.08a6.57 6.57 0 0 0 5.26 6.43 6.57 6.57 0 0 1-2.96.12 6.57 6.57 0 0 0 6.13 4.55A13.17 13.17 0 0 1 0 26.06a18.58 18.58 0 0 0 10.06 2.95c12.08 0 18.68-10 18.68-18.67 0-.29 0-.57-.02-.85 1.29-.93 2.4-2.08 3.28-3.4Z" fill="#fff"/></svg>