<svg width="1630" height="1083" fill="none" xmlns="http://www.w3.org/2000/svg"><path d="M641.47 232.7c-68.27-5.96-121.38 5.19-151.94 31.72-30.51 26.49-37.13 67.09-18.72 116.22 18.42 49.14 60.93 104.24 121.57 157.5 60.64 53.25 136.3 101.93 216.31 139.16 80 37.23 160.28 61.12 229.47 68.29 69.21 7.17 123.74-2.74 155.98-28.21 16.1-12.73 26.25-29.02 30.3-48.19 4.05-19.17 2.01-41.25-6.3-65.55-16.64-48.61-57.54-103.55-116.98-157.02l-459.7-213.93Zm84.4-38.44C599.15 146.5 487.82 128.35 411.9 143c-37.94 7.32-65.74 22.59-82.66 44.7-16.93 22.1-23.04 51.12-17.48 86.06 11.13 69.92 68.27 158.81 161.25 250.67 92.97 91.83 215.6 180.52 345.8 250.1 130.2 69.57 259.4 115.43 364.33 129.35 52.46 6.96 97.11 5.7 132.29-3.32 35.18-9.03 60.86-25.8 75.47-49.87 14.61-24.07 17.72-54.7 9.64-90.28-8.1-35.59-27.38-76.09-57.51-119.82-60.27-87.47-159.88-182.05-280.94-266.7L725.88 194.26ZM17.78 81.75c-90.33 156.45 193.3 489.3 633.51 743.45 440.2 254.15 870.27 333.36 960.59 176.93 90.32-156.44-193.31-489.29-633.52-743.44C538.16 4.54 108.08-74.68 17.76 81.76Z" stroke="#fff" stroke-opacity=".2"/></svg>